<svg xmlns="http://www.w3.org/2000/svg" viewBox="0 0 2050 443" width="2050" height="443"><defs></defs><g transform="matrix(1,0,0,1,-12.165788751,-20.550470767)">
<g>
	<g>
		<g transform="matrix(1.578683055,0,0,1.578683055,-227.257408322,-105.85772033)">
			<path d="M174.1287646946148,130.96101455023728 C174.1287646946148,130.96101455023728 252.40621545582258,131.1082892438369 252.40621545582258,131.1082892438369 C254.18375766328313,123.89221253760968 257.1588457551834,118.2638534784117 259.96071133461487,114.12024945023727 C260.8989686884024,112.75184178781265 261.9230354265537,111.38763781635195 263.0416738012916,110.03871065275334 C263.0416738013205,110.03871065275807 170.9358492346148,109.86542216023727 170.9358492346148,109.86542216023727 C170.9358492346148,109.86542216023727 170.65066428461478,109.86511824023728 170.65066428461478,109.86511824023728 C170.65066428461478,109.86511824023728 170.3658798146148,109.88022924023727 170.3658798146148,109.88022924023727 C154.70364064461478,110.71128583023727 147.4716675546149,125.77253008023726 154.1416909746149,138.43942008023726 C154.1416909746149,138.43942008023726 273.1189371046148,349.38012552023724 273.1189371046148,349.38012552023724 C282.8540620346148,365.6865796802373 301.35151345461486,364.27552828023727 308.92108517461475,350.8301990702373 C311.3353088408303,346.70569624348934 331.6181373489171,312.04561096580096 353.2716739541045,274.9910179953723 C352.8758468035594,275.190172945116 352.47543212495816,275.38712820550984 352.07037956461477,275.5818046302373 C342.76186833541965,279.9838100076379 333.1892948570967,281.9316779594408 324.3926006090146,282.6076972244093 C308.6955126003463,309.4595604522131 295.3387296880694,332.287833072848 291.4451044246148,338.94323807023727 C289.04344751461485,334.6850411202373 187.08702059461484,153.91391327023726 174.1287646946148,130.96101455023728 ZM171.29077222461478,130.95567503023727 C171.29077222461478,130.95567503023727 174.1287646946148,130.96101455023728 174.1287646946148,130.96101455023728 C173.3617270546149,129.60236432023726 172.90652187461478,128.79667881023727 172.80225520461477,128.61329855023726 C172.80225520461477,128.61329855023726 172.73888597461473,128.46495918023726 172.73888597461473,128.46495918023726 C172.76304202461483,128.56256079023728 172.78647868461485,129.01691582023727 172.49285818461476,129.61569528023728 C172.11222311461484,130.39192334023727 171.50140586461475,130.81101886023725 171.19982094461488,130.94752346023728 C171.19982094461488,130.94752346023728 170.91337466461482,130.95496497023726 170.91337466461482,130.95496497023726 C170.91337466461482,130.95496497023726 171.18188210461471,130.95547016023727 171.18188210461471,130.95547016023727 C171.14681171461484,130.97065828023727 171.1164612546147,130.98170256023727 171.0917962846147,130.98873640023726 C171.0983294046148,130.98687332023727 171.16165006461483,130.97016175023725 171.29077222461478,130.95567503023727 Z" fill="#000000"/>
		</g>
		<g transform="matrix(1.578683055,0,0,1.578683055,-227.257408322,-105.85772033)">
			<path d="M317.9862836370987,265.7157074649568 Q300.8681334443623,265.8912782361643 288.22703791741844,260.27301355752263 Q275.6737277760784,254.65474887888092 264.2616276475875,243.4182195215975 Q263.1204176347384,242.54036566555976 262.3303491643044,241.2235848815031 Q261.5402806938704,239.81901871184266 261.5402806938704,238.06331099976717 Q261.5402806938704,235.34196404605007 263.64712994836106,233.14732940595565 Q265.8417645884555,230.86490938025747 268.5631115421725,230.86490938025747 Q271.1966731102858,230.86490938025747 273.47909313598404,233.0595440203519 Q282.25763169636167,242.54036566555976 293.3185902824375,247.54413264497504 Q304.46733425411713,252.4601142387865 317.2840005522685,252.4601142387865 Q328.081602981533,252.4601142387865 336.50899999949553,249.12426958584302 Q344.9363970174581,245.70063954729574 349.8523786112696,239.3800917838238 Q354.85614559068483,233.0595440203519 354.85614559068483,224.8077177735969 Q354.85614559068483,214.44904227235128 349.2378809120431,208.04070912327558 Q343.6196162334014,201.63237597419993 334.4021507450049,197.5064628508224 Q325.18468525660836,193.29276434184112 313.948155899325,189.95691968889764 Q304.73069041092845,187.23557273518054 296.3910787785697,183.81194269663325 Q288.05146714621094,180.3005272724822 281.5553486115315,175.29676029306694 Q275.059230076852,170.2052079280479 271.4600292670972,162.83123553733068 Q267.86082845734234,155.3694777610097 267.86082845734234,144.74744610295272 Q267.86082845734234,132.8964190464429 274.0935908352105,123.67895355804637 Q280.41413859868237,114.46148806964983 292.00180949838085,109.19436493342324 Q303.58948039807933,103.83945641159288 318.86413749313647,103.83945641159288 Q332.11973071930674,103.83945641159288 344.32189931823166,108.40429646298925 Q356.6118533027604,112.88135112878186 363.81025492227,121.65988968915951 Q367.14609957521355,125.25909049891435 367.14609957521355,128.15600822383897 Q367.14609957521355,130.3506428639334 364.8636795495154,132.63306288963156 Q362.66904490942096,134.91548291532976 359.94769795570386,134.91548291532976 Q357.75306331560944,134.91548291532976 356.1729263747415,133.3353459744618 Q352.31036940817535,128.59493515185784 346.42874857272227,124.90794895649924 Q340.63491312287306,121.22096276114063 333.5242968889671,119.20189889225377 Q326.50146604066504,117.09504963776313 318.86413749313647,117.09504963776313 Q308.3298912206833,117.09504963776313 299.90249420272073,120.43089429070663 Q291.4750971847582,123.67895355804637 286.6469009765505,129.73614516470695 Q281.8187047683428,135.79333677136754 281.8187047683428,144.30851917493385 Q281.8187047683428,153.78934082014172 287.17361329017314,159.8465324268023 Q292.52852181200353,165.90372403346288 301.30706037238116,169.8540663856328 Q310.08559893275884,173.80440873780276 320.0053475059856,177.14025339074624 Q329.661739922401,179.86160034446334 338.5280638683824,183.37301576861438 Q347.3943878143638,186.79664580716167 354.2416478914584,191.9759835577845 Q361.088907968553,197.15532130840728 365.0392503207229,205.05600601274722 Q368.98959267289285,212.8689053314833 368.98959267289285,224.8077177735969 Q368.98959267289285,236.21981790208787 362.40568875260965,245.43728339048437 Q355.90957021793014,254.65474887888092 344.58525547504297,260.09744278631507 Q333.2609407321558,265.4523513081454 317.9862836370987,265.7157074649568 Q317.9862836370987,265.7157074649568 317.9862836370987,265.7157074649568 ZM410.5752829692764,256.6738127477678 Q410.5752829692764,259.39515970148483 408.5562191003895,261.4142235703717 Q406.53715523150265,263.43328743925855 403.8158082777856,263.43328743925855 Q400.91889055286094,263.43328743925855 398.9876120695779,261.4142235703717 Q397.05633358629484,259.39515970148483 397.05633358629484,256.6738127477678 Q397.05633358629484,153.35041389212284 397.05633358629484,153.35041389212284 Q397.05633358629484,150.62906693840574 398.9876120695779,148.61000306951888 Q400.91889055286094,146.59093920063202 403.8158082777856,146.59093920063202 Q406.71272600271027,146.59093920063202 408.6440044859933,148.61000306951888 Q410.5752829692764,150.62906693840574 410.5752829692764,153.35041389212284 Q410.5752829692764,256.6738127477678 410.5752829692764,256.6738127477678 ZM403.8158082777856,131.57963826238625 Q399.0753974551817,131.57963826238625 396.7051920438797,129.4727890078956 Q394.33498663257774,127.2781543678012 394.33498663257774,123.24002663002749 Q394.33498663257774,120.9576066043293 394.33498663257774,120.9576066043293 Q394.33498663257774,116.91947886655558 396.8807628150872,114.81262961206494 Q399.5143243832006,112.7057803575743 403.99137904899317,112.7057803575743 Q408.2928629435782,112.7057803575743 410.5752829692764,114.81262961206494 Q412.94548838057835,116.91947886655558 412.94548838057835,120.9576066043293 Q412.94548838057835,123.24002663002749 412.94548838057835,123.24002663002749 Q412.94548838057835,127.2781543678012 410.5752829692764,129.4727890078956 Q408.2928629435782,131.57963826238625 403.8158082777856,131.57963826238625 Q403.8158082777856,131.57963826238625 403.8158082777856,131.57963826238625 ZM497.29319528363396,147.73214921348114 Q511.25107159463437,147.73214921348114 521.0830347822574,155.01833621859458 Q531.0027833554841,162.30452322370803 534.601984165239,176.70132646272737 Q531.441710283503,177.57918031876517 531.441710283503,177.57918031876517 C531.441710283503,177.57918031876517 532.8462764531635,173.54105258099145 532.8462764531635,173.54105258099145 Q535.7431941780881,166.78157788950062 542.5904542551826,160.8999570540476 Q549.4377143322772,154.9305508329908 558.2162528926548,151.33135002323598 Q566.9947914530325,147.73214921348114 575.9489007846176,147.73214921348114 Q590.0823478668257,147.73214921348114 598.6853156559959,153.78934082014172 Q607.3760688307697,159.8465324268023 611.3264111829396,170.11742254244416 Q615.2767535351096,180.3005272724822 615.2767535351096,193.11719357063356 Q615.2767535351096,256.6738127477678 615.2767535351096,256.6738127477678 Q615.2767535351096,259.39515970148483 613.3454750518265,261.4142235703717 Q611.5019819541471,263.43328743925855 608.5172788436188,263.43328743925855 Q605.6203611186942,263.43328743925855 603.6890826354111,261.4142235703717 Q601.757804152128,259.39515970148483 601.757804152128,256.6738127477678 Q601.757804152128,193.73169126986 601.757804152128,193.73169126986 Q601.757804152128,184.5142257814635 598.8608864272034,176.87689723393493 Q595.9639687022787,169.23956868640636 589.6434209388068,164.76251402061376 Q583.4106585609387,160.28545935482117 572.7886269028818,160.28545935482117 Q563.5711614144852,160.28545935482117 555.1437643965227,164.76251402061376 Q546.7163673785601,169.23956868640636 541.4492442423335,176.87689723393493 Q536.1821211061069,184.5142257814635 536.1821211061069,193.73169126986 Q536.1821211061069,256.6738127477678 536.1821211061069,256.6738127477678 Q536.1821211061069,259.39515970148483 534.2508426228238,261.4142235703717 Q532.3195641395407,263.43328743925855 529.4226464146161,263.43328743925855 Q526.5257286896915,263.43328743925855 524.5944502064084,261.4142235703717 Q522.6631717231254,259.39515970148483 522.6631717231254,256.6738127477678 Q522.6631717231254,193.11719357063356 522.6631717231254,193.11719357063356 Q522.6631717231254,183.89972808223706 519.9418247694083,176.5257556915198 Q517.308263201295,169.06399791519883 511.25107159463437,164.67472863501 Q505.1938799879738,160.28545935482117 494.83520448672823,160.28545935482117 Q485.6177389983317,160.28545935482117 477.3659127515767,164.67472863501 Q469.2018718904254,169.06399791519883 464.11031952540645,176.5257556915198 Q459.1065525459911,183.89972808223706 459.1065525459911,193.11719357063356 Q459.1065525459911,256.6738127477678 459.1065525459911,256.6738127477678 Q459.1065525459911,259.39515970148483 457.08748867710426,261.4142235703717 Q455.0684248082174,263.43328743925855 452.34707785450036,263.43328743925855 Q449.18680397276444,263.43328743925855 447.3433108750851,261.4142235703717 Q445.5876031630096,259.39515970148483 445.5876031630096,256.6738127477678 Q445.5876031630096,155.98397546023614 445.5876031630096,155.98397546023614 Q445.5876031630096,153.35041389212284 447.5188816462927,151.33135002323598 Q449.45016012957575,149.31228615434912 452.34707785450036,149.31228615434912 Q455.243995579425,149.31228615434912 457.17527406270807,151.33135002323598 Q459.1065525459911,153.35041389212284 459.1065525459911,155.98397546023614 Q459.1065525459911,176.87689723393493 459.1065525459911,176.87689723393493 C459.1065525459911,176.87689723393493 453.04936093933054,185.21650886629368 453.04936093933054,185.21650886629368 Q453.66385863855703,178.4570341748029 457.35084483391563,171.7853448689159 Q461.125616414878,165.0258701774251 467.18280802153856,159.67096165559474 Q473.23999962819914,154.2282677481606 480.96511356133146,150.98020848082086 Q488.77801288006765,147.73214921348114 497.29319528363396,147.73214921348114 Q497.29319528363396,147.73214921348114 497.29319528363396,147.73214921348114 ZM705.1443951975807,147.73214921348114 Q720.4190522926378,147.73214921348114 732.1822939635439,155.2816923754059 Q744.0333210200537,162.7434501517269 750.9683664827521,175.91125799229337 Q757.9911973310542,189.07906583285984 757.9911973310542,206.10943063999252 Q757.9911973310542,223.2275808327289 750.9683664827521,236.48317405889918 Q744.0333210200537,249.73876728506946 732.0945085779401,257.37609583259797 Q720.2434815214303,265.01342438012654 705.4077513543921,265.01342438012654 Q697.5070666500521,265.01342438012654 690.3964504161463,262.64321896882456 Q683.3736195678441,260.27301355752263 677.4919987323912,256.2348858197489 Q671.6981632825418,252.1967580819752 667.1333232311455,246.75406417454104 Q662.6562685653529,241.2235848815031 660.0227069972397,234.63968096121988 Q664.0608347350134,231.74276323629527 664.0608347350134,231.74276323629527 C664.0608347350134,231.74276323629527 664.0608347350134,301.61993017690133 664.0608347350134,301.61993017690133 Q664.0608347350134,304.3412771306184 662.1295562517303,306.36034099950524 Q660.1982777684472,308.3794048683921 657.3013600435225,308.3794048683921 Q654.404442318598,308.3794048683921 652.4731638353148,306.36034099950524 Q650.5418853520317,304.3412771306184 650.5418853520317,301.61993017690133 Q650.5418853520317,155.10612160419834 650.5418853520317,155.10612160419834 Q650.5418853520317,152.20920387927373 652.2975930641072,150.19014001038687 Q654.1410861617866,148.1710761415 657.3013600435225,148.1710761415 Q660.1982777684472,148.1710761415 662.1295562517303,150.19014001038687 Q664.0608347350134,152.20920387927373 664.0608347350134,155.10612160419834 Q664.0608347350134,179.42267341644447 664.0608347350134,179.42267341644447 C664.0608347350134,179.42267341644447 660.9005608532774,177.57918031876517 660.9005608532774,177.57918031876517 Q663.1829808789755,170.64413485606678 667.4844647735606,165.11365556302889 Q671.8737340537494,159.58317626999096 677.7553548892024,155.7206193034248 Q683.6369757246555,151.77027695125486 690.5720211873538,149.751213082368 Q697.5070666500521,147.73214921348114 705.1443951975807,147.73214921348114 Q705.1443951975807,147.73214921348114 705.1443951975807,147.73214921348114 ZM704.0909705703355,160.28545935482117 Q691.8888019714104,160.28545935482117 682.671336483014,166.25486557587797 Q673.4538709946174,172.22427179693477 668.1867478583908,182.49516191257663 Q662.9196247221643,192.6782666426147 662.9196247221643,206.10943063999252 Q662.9196247221643,219.36502386616274 668.1867478583908,229.98705552421973 Q673.4538709946174,240.5213017966729 682.671336483014,246.49070801772973 Q691.8888019714104,252.4601142387865 704.0909705703355,252.4601142387865 Q715.9419976268453,252.4601142387865 725.0716777296379,246.49070801772973 Q734.2013578324307,240.5213017966729 739.5562663542611,229.98705552421973 Q744.9111748760915,219.36502386616274 744.9111748760915,206.10943063999252 Q744.9111748760915,192.85383741382225 739.5562663542611,182.5829472981804 Q734.2013578324307,172.22427179693477 725.0716777296379,166.25486557587797 Q715.9419976268453,160.28545935482117 704.0909705703355,160.28545935482117 Q704.0909705703355,160.28545935482117 704.0909705703355,160.28545935482117 ZM801.5643393274365,256.6738127477678 Q801.5643393274365,259.39515970148483 799.5452754585497,261.4142235703717 Q797.5262115896628,263.43328743925855 794.8048646359457,263.43328743925855 Q791.9079469110211,263.43328743925855 789.976668427738,261.4142235703717 Q788.1331753300586,259.39515970148483 788.1331753300586,256.6738127477678 Q788.1331753300586,103.83945641159288 788.1331753300586,103.83945641159288 Q788.1331753300586,101.20589484347958 790.1522391989455,99.18683097459272 Q792.1713030678324,97.16776710570586 794.8048646359457,97.16776710570586 Q797.7895677464741,97.16776710570586 799.6330608441534,99.18683097459272 Q801.5643393274365,101.20589484347958 801.5643393274365,103.83945641159288 Q801.5643393274365,256.6738127477678 801.5643393274365,256.6738127477678 ZM888.138303755464,265.7157074649568 Q870.7567974059162,265.7157074649568 857.501204179746,258.3417350742395 Q844.2456109535757,250.87997729791851 836.7838531772547,237.6243840717483 Q829.4098807865375,224.36879084557802 829.4098807865375,206.5483575680114 Q829.4098807865375,187.4989288919919 836.9594239484622,174.06776489461407 Q844.5089671103871,160.54881551163248 856.5355649381045,153.26262850651904 Q868.5621627658219,145.88865611580184 881.9933267631997,145.88865611580184 Q891.9130753364263,145.88865611580184 901.2183262104267,149.40007153995288 Q910.6113624700308,152.82370157850016 917.8975494751443,159.75874704119852 Q925.1837364802577,166.60600711829306 929.5730057604466,176.5257556915198 Q933.9622750406353,186.3577188791428 934.4012019686542,199.3499559485017 Q934.1378458118429,202.0713029022188 932.118781942956,204.00258138550186 Q930.0997180740692,205.93385986878496 927.4661565059558,205.93385986878496 Q837.3105654908774,205.93385986878496 837.3105654908774,205.93385986878496 C837.3105654908774,205.93385986878496 834.5892185371604,193.73169126986 834.5892185371604,193.73169126986 C834.5892185371604,193.73169126986 923.1646726113709,193.73169126986 923.1646726113709,193.73169126986 C923.1646726113709,193.73169126986 920.2677548864463,196.4530382235771 920.2677548864463,196.4530382235771 C920.2677548864463,196.4530382235771 920.2677548864463,191.9759835577845 920.2677548864463,191.9759835577845 Q919.3021156448046,181.44173728533133 913.4204948093517,174.06776489461407 Q907.6266593595024,166.60600711829306 899.2870477271437,162.83123553733068 Q891.0352214803886,158.96867857076452 881.9933267631997,158.96867857076452 Q875.3216374573126,158.96867857076452 868.2110212234068,161.6900255244816 Q861.1004049895008,164.3235870925949 855.3943549252554,170.11742254244416 Q849.6883048610099,175.82347260668962 846.089104051255,184.68979655267105 Q842.4899032415002,193.5561204986525 842.4899032415002,205.67050371197365 Q842.4899032415002,218.92609693814387 847.8448117633305,229.72369936740841 Q853.2875056707647,240.5213017966729 863.4706104008028,246.8418495601448 Q873.7415005164446,253.07461193801294 887.8749475986526,253.07461193801294 Q895.7756323029926,253.07461193801294 902.0083946808606,250.87997729791851 Q908.3289424443326,248.59755727222034 913.0693532669366,244.91057107686174 Q917.8097640895404,241.2235848815031 920.8822525856726,237.0976717581256 Q923.4280287681821,235.07860788923875 925.8860195650878,235.07860788923875 Q928.0806542051823,235.07860788923875 929.7485765316541,236.92210098691805 Q931.5042842437296,238.6778086989936 931.5042842437296,240.96022872469177 Q931.5042842437296,243.68157567840888 929.2218642180314,245.70063954729574 Q922.4623895265406,253.77689502284318 911.6647870972761,259.74630124389995 Q900.9549700536154,265.7157074649568 888.138303755464,265.7157074649568 Q888.138303755464,265.7157074649568 888.138303755464,265.7157074649568 ZM958.4087475090167,147.4687930566698 Q961.832377547564,147.4687930566698 963.8514414164508,150.36571078159443 Q1043.3850007734725,253.33796809482425 1043.3850007734725,253.33796809482425 Q1044.9651377143405,255.0936758068998 1044.9651377143405,257.37609583259797 Q1044.9651377143405,260.09744278631507 1042.9460738454536,262.11650665520193 Q1040.9270099765668,264.1355705240888 1038.2056630228496,264.1355705240888 Q1035.0453891411137,264.1355705240888 1032.587398344208,261.1508674135604 Q952.790482830375,158.2663954859343 952.790482830375,158.2663954859343 Q951.4737020463184,156.68625854506632 951.4737020463184,154.2282677481606 Q951.4737020463184,151.33135002323598 953.580551300809,149.40007153995288 Q955.7751859409034,147.4687930566698 958.4087475090167,147.4687930566698 Q958.4087475090167,147.4687930566698 958.4087475090167,147.4687930566698 ZM958.4087475090167,264.1355705240888 Q956.2141128689223,264.1355705240888 954.0194782288279,262.5554335832208 Q951.9126289743373,260.9752966423528 951.9126289743373,258.0783789174282 Q951.9126289743373,255.53260273491867 953.4927659152053,253.77689502284318 Q991.5038378816405,204.9682206271434 991.5038378816405,204.9682206271434 C991.5038378816405,204.9682206271434 998.8778102723577,215.7658230564079 998.8778102723577,215.7658230564079 C998.8778102723577,215.7658230564079 963.8514414164508,261.4142235703717 963.8514414164508,261.4142235703717 Q961.832377547564,264.1355705240888 958.4087475090167,264.1355705240888 Q958.4087475090167,264.1355705240888 958.4087475090167,264.1355705240888 ZM1038.2056630228496,147.4687930566698 Q1041.1025807477743,147.4687930566698 1042.7705030742459,149.13671538314156 Q1044.5262107863216,150.8046377096133 1044.5262107863216,153.35041389212284 Q1044.5262107863216,154.40383851936815 1044.1750692439064,155.54504853221724 Q1043.8239277014914,156.68625854506632 1042.9460738454536,157.5641124011041 Q1004.9350018790183,207.51399680965295 1004.9350018790183,207.51399680965295 C1004.9350018790183,207.51399680965295 997.99995641632,196.7163943803884 997.99995641632,196.7163943803884 C997.99995641632,196.7163943803884 1032.587398344208,150.36571078159443 1032.587398344208,150.36571078159443 Q1035.0453891411137,147.4687930566698 1038.2056630228496,147.4687930566698 Q1038.2056630228496,147.4687930566698 1038.2056630228496,147.4687930566698 ZM1160.6697479207007,250.17769421308833 Q1163.3910948744178,250.17769421308833 1165.4101587433047,252.10897269637138 Q1167.4292226121916,253.95246579405068 1167.4292226121916,256.6738127477678 Q1167.4292226121916,259.5707304726924 1165.4101587433047,261.5020089559755 Q1163.3910948744178,263.43328743925855 1160.6697479207007,263.43328743925855 Q1080.433905478849,263.43328743925855 1080.433905478849,263.43328743925855 Q1077.5369877539244,263.43328743925855 1075.6057092706415,261.4142235703717 Q1073.762216172962,259.39515970148483 1073.762216172962,256.6738127477678 Q1073.762216172962,112.88135112878186 1073.762216172962,112.88135112878186 Q1073.762216172962,110.16000417506478 1075.781280041849,108.14094030617792 Q1077.8003439107358,106.12187643729106 1080.9606177924718,106.12187643729106 Q1083.594179360585,106.12187643729106 1085.7010286150758,108.14094030617792 Q1087.8956632551701,110.16000417506478 1087.8956632551701,112.88135112878186 Q1087.8956632551701,253.95246579405068 1087.8956632551701,253.95246579405068 C1087.8956632551701,253.95246579405068 1083.594179360585,250.17769421308833 1083.594179360585,250.17769421308833 C1083.594179360585,250.17769421308833 1160.6697479207007,250.17769421308833 1160.6697479207007,250.17769421308833 ZM1284.088970390529,148.61000306951888 Q1286.9858881154537,148.61000306951888 1288.9171665987367,150.62906693840574 Q1290.84844508202,152.6481308072926 1290.84844508202,155.54504853221724 Q1290.84844508202,256.6738127477678 1290.84844508202,256.6738127477678 Q1290.84844508202,259.39515970148483 1288.829381213133,261.4142235703717 Q1286.8103173442462,263.43328743925855 1284.088970390529,263.43328743925855 Q1281.1920526656045,263.43328743925855 1279.2607741823213,261.4142235703717 Q1277.3294956990383,259.39515970148483 1277.3294956990383,256.6738127477678 Q1277.3294956990383,229.98705552421973 1277.3294956990383,229.98705552421973 C1277.3294956990383,229.98705552421973 1281.1920526656045,228.14356242654043 1281.1920526656045,228.14356242654043 Q1281.1920526656045,234.46411019001232 1277.6806372414535,240.96022872469177 Q1274.1692218173023,247.45634725937123 1268.1120302106417,253.07461193801294 Q1262.0548386039811,258.69287661665464 1253.8030123572262,262.2042920408057 Q1245.6389714960749,265.7157074649568 1236.2459352364708,265.7157074649568 Q1220.9712781414137,265.7157074649568 1208.9446803136964,257.8150227606169 Q1196.9180824859789,249.91433805627696 1189.9830370232805,236.21981790208787 Q1183.135776946186,222.52529774789872 1183.135776946186,205.4949329407661 Q1183.135776946186,187.93785582001078 1190.0708224088844,174.59447720823675 Q1197.0936532571866,161.16331321085892 1209.0324656993,153.52598466333038 Q1220.9712781414137,145.88865611580184 1235.9825790796594,145.88865611580184 Q1245.6389714960749,145.88865611580184 1254.0663685140375,149.31228615434912 Q1262.493765532,152.6481308072926 1268.726527909868,158.52975164274562 Q1275.04707567334,164.3235870925949 1278.5584910974912,171.87313025451965 Q1282.0699065216422,179.42267341644447 1282.0699065216422,187.4989288919919 Q1277.3294956990383,184.07529885344462 1277.3294956990383,184.07529885344462 C1277.3294956990383,184.07529885344462 1277.3294956990383,155.54504853221724 1277.3294956990383,155.54504853221724 Q1277.3294956990383,152.6481308072926 1279.2607741823213,150.62906693840574 Q1281.1920526656045,148.61000306951888 1284.088970390529,148.61000306951888 Q1284.088970390529,148.61000306951888 1284.088970390529,148.61000306951888 ZM1237.299359863716,253.07461193801294 Q1249.2381723058297,253.07461193801294 1258.4556377942263,246.9296349457486 Q1267.6731032826228,240.69687256788046 1272.9402264188493,229.81148475301217 Q1278.207349555076,218.92609693814387 1278.207349555076,205.4949329407661 Q1278.207349555076,192.15155432899206 1272.9402264188493,181.6173080565389 Q1267.6731032826228,171.0830617840857 1258.4556377942263,164.76251402061376 Q1249.2381723058297,158.44196625714187 1237.299359863716,158.44196625714187 Q1225.6239035784138,158.44196625714187 1216.3186527044136,164.5869432494062 Q1207.0134018304132,170.64413485606678 1201.6584933085828,181.17838112851996 Q1196.3913701723563,191.71262740097313 1196.3913701723563,205.4949329407661 Q1196.3913701723563,218.92609693814387 1201.6584933085828,229.81148475301217 Q1207.0134018304132,240.69687256788046 1216.2308673188097,246.9296349457486 Q1225.4483328072063,253.07461193801294 1237.299359863716,253.07461193801294 Q1237.299359863716,253.07461193801294 1237.299359863716,253.07461193801294 ZM1380.6845281555502,145.88865611580184 Q1395.9591852506073,145.88865611580184 1407.7224269215135,153.52598466333038 Q1419.5734539780233,161.16331321085892 1426.5084994407216,174.59447720823675 Q1433.5313302890236,187.93785582001078 1433.5313302890236,205.4949329407661 Q1433.5313302890236,222.52529774789872 1426.5084994407216,236.21981790208787 Q1419.5734539780233,249.91433805627696 1407.6346415359096,257.8150227606169 Q1395.7836144793998,265.7157074649568 1380.9478843123616,265.7157074649568 Q1373.0471996080216,265.7157074649568 1365.9365833741158,263.257716668051 Q1358.9137525258136,260.7119404855415 1353.0321316903605,256.586027362164 Q1347.2382962405113,252.4601142387865 1342.673456189115,246.8418495601448 Q1338.1964015233225,241.2235848815031 1335.562839955209,234.63968096121988 Q1339.6009676929827,231.74276323629527 1339.6009676929827,231.74276323629527 C1339.6009676929827,231.74276323629527 1339.6009676929827,257.11273967578666 1339.6009676929827,257.11273967578666 Q1339.6009676929827,260.09744278631507 1337.6696892096998,262.0287212695981 Q1335.7384107264165,263.8722143672774 1332.841493001492,263.8722143672774 Q1329.9445752765673,263.8722143672774 1328.0132967932843,262.0287212695981 Q1326.0820183100013,260.09744278631507 1326.0820183100013,257.11273967578666 Q1326.0820183100013,104.1028125684042 1326.0820183100013,104.1028125684042 Q1326.0820183100013,101.20589484347958 1327.8377260220768,99.27461636019649 Q1329.6812191197562,97.34333787691341 1332.841493001492,97.34333787691341 Q1335.7384107264165,97.34333787691341 1337.6696892096998,99.27461636019649 Q1339.6009676929827,101.20589484347958 1339.6009676929827,104.1028125684042 Q1339.6009676929827,179.42267341644447 1339.6009676929827,179.42267341644447 C1339.6009676929827,179.42267341644447 1336.4406938112468,177.57918031876517 1336.4406938112468,177.57918031876517 Q1338.723113836945,170.64413485606678 1343.02459773153,164.93808479182132 Q1347.4138670117188,159.14424934197206 1353.295487847172,154.9305508329908 Q1359.177108682625,150.62906693840574 1366.1121541453233,148.2588615271038 Q1373.0471996080216,145.88865611580184 1380.6845281555502,145.88865611580184 Q1380.6845281555502,145.88865611580184 1380.6845281555502,145.88865611580184 ZM1379.631103528305,158.44196625714187 Q1367.42893492938,158.44196625714187 1358.2114694409834,164.5869432494062 Q1348.9940039525868,170.64413485606678 1343.7268808163603,181.17838112851996 Q1338.4597576801336,191.71262740097313 1338.4597576801336,205.4949329407661 Q1338.4597576801336,218.92609693814387 1343.7268808163603,229.81148475301217 Q1348.9940039525868,240.69687256788046 1358.2114694409834,246.9296349457486 Q1367.42893492938,253.07461193801294 1379.631103528305,253.07461193801294 Q1391.4821305848147,253.07461193801294 1400.6118106876074,246.8418495601448 Q1409.7414907904003,240.5213017966729 1415.0963993122307,229.6359139818046 Q1420.451307834061,218.7505261669363 1420.451307834061,205.4949329407661 Q1420.451307834061,191.71262740097313 1415.0963993122307,181.17838112851996 Q1409.7414907904003,170.64413485606678 1400.6118106876074,164.5869432494062 Q1391.4821305848147,158.44196625714187 1379.631103528305,158.44196625714187 Q1379.631103528305,158.44196625714187 1379.631103528305,158.44196625714187 Z" fill="#000000"/>
		</g>
		<g transform="matrix(1.80112183,-0.361663929,0.361663929,1.80112183,-1755.177480688,168.662395525)">
			<path d="M1164.3204465229887,176.85037596211643 C1170.6009424541478,176.85037596211643 1175.7025943894785,181.9520278974473 1175.7025943894785,188.23252382860625 C1175.7025943894785,194.5130197597652 1170.6009424541478,199.61467169509606 1164.3204465229887,199.61467169509606 C1158.0399505918297,199.61467169509606 1152.938298656499,194.5130197597652 1152.938298656499,188.23252382860625 C1152.938298656499,181.9520278974473 1158.0399505918297,176.85037596211643 1164.3204465229887,176.85037596211643 Z" fill="#000000"/>
		</g>
	</g>
</g></g></svg>