<svg xmlns="http://www.w3.org/2000/svg" viewBox="0 0 428 416" width="428" height="416"><defs></defs><g transform="matrix(1,0,0,1,-41.201311749,-47.952468781)">
<g>
	<g>
		<g transform="matrix(0.925553371,-0.378617164,0.378617164,0.925553371,-902.178937725,341.350504285)">
			<path d="M1323.6218229788367,235.0523484597209 C1341.1048087586848,227.90056370312698 1361.1156528323438,236.29260666793328 1368.2674375889376,253.77559244778143 C1375.4192223455316,271.2585782276296 1367.0271793807253,291.26942230128844 1349.5441936008772,298.4212070578824 C1332.061207821029,305.57299181447627 1312.05036374737,297.18094884966996 1304.8985789907763,279.6979630698218 C1297.7467942341823,262.21497728997366 1306.1388371989885,242.20413321631477 1323.6218229788367,235.0523484597209 Z" fill="#529d68"/>
		</g>
		<g transform="matrix(0.925553371,-0.378617164,0.378617164,0.925553371,-902.178937725,341.350504285)">
			<path d="M1227.353353605205,265.799828230974 C1145.305639332028,250.22205403654436 983.6908713709475,219.6569481901962 975.5147166027306,218.11100940981424 L976.9343142613301,218.33986193893662 C984.8804558676424,219.40132239850118 994.606728615112,209.7784399566724 991.8228321840198,200.74273827541407 L991.5679860595143,199.9589574861481 C993.5063362978627,205.62048090991163 1103.8012497023956,530.0298067334627 1103.8012497023956,530.0298067334627 L1103.580720510351,529.4066863074664 C1103.5993152913002,529.4535441600079 1103.6179100722497,529.5004020125493 1103.6365048531989,529.5472598650907 C1101.2551344367257,524.3508418525475 1088.605918392695,520.986972280159 1082.5555695544685,528.1911119733887 C1090.7299105316683,518.7747576432056 1205.3644351211055,386.81702108334406 1251.0946149499764,333.84947295323167 C1260.6927131936995,322.7323565853447 1277.4857126292031,321.5009490918734 1288.60282899709,331.09904733559654 C1299.7199453649769,340.6971455793197 1300.9513528584484,357.4901450148233 1291.3532546147253,368.6072613827103 C1245.6307198499167,421.5659545225253 1131.3115484244272,553.1610588823689 1123.2842918228198,562.3968586623874 C1103.3985530771097,586.0747727228201 1066.0206061185313,581.350775131722 1053.6655314102027,547.773390455487 L1053.551394534309,547.4632006850409 L1053.4450022181577,547.1502700294906 C1053.4450022181577,547.1502700294906 943.1683814462459,222.79474814333884 941.2484387739445,217.1869894439717 L941.1149423583191,216.7970737986468 L940.9935926494389,216.40320865470574 C932.4652627834342,188.7227807307595 953.3806885288983,161.5340383023317 983.9765856991836,165.62109547802578 L984.6894792041102,165.71632512592925 L985.3961833577833,165.8499480071481 C994.2356477015959,167.52130466737475 1155.4069407492107,198.00271548375173 1237.2743413321232,213.54625489204534 C1251.7037671717508,216.28586000446313 1261.1802392505465,230.20410958534137 1258.4406341381286,244.63353542496895 C1255.7010290257108,259.06296126459654 1241.7827794448326,268.5394333433918 1227.353353605205,265.799828230974" fill="#529d68"/>
		</g>
	</g>
</g></g></svg>