<svg xmlns="http://www.w3.org/2000/svg" viewBox="0 0 512 512" width="512" height="512"><defs></defs><g>
<g>
	<g>
		<g transform="matrix(0.925553371,-0.378617164,0.378617164,0.925553371,-904.407637005,341.689931583)">
			<path d="M1328.3969965144759,246.72555925411905 C1339.4388822701694,242.20864256574396 1352.0773101061643,247.50888022772688 1356.5942267945395,258.55076598342043 C1361.1111434829147,269.592651739114 1355.8109058209318,282.2310795751091 1344.769020065238,286.7479962634842 C1333.7271343095445,291.2649129518593 1321.0887064735496,285.96467528987637 1316.5717897851744,274.9227895341828 C1312.0548730967992,263.88090377848926 1317.355110758782,251.24247594249414 1328.3969965144759,246.72555925411905 Z" fill="#ffffff"/>
		</g>
		<g transform="matrix(0.925553371,-0.378617164,0.378617164,0.925553371,-904.407637005,341.689931583)">
			<path d="M1229.8336005369347,252.73643489624186 C1147.8398318920408,237.16890294711555 986.3560228430366,206.62851254235562 977.9850832914937,205.04574405914775 L978.6948821207935,205.16017032370888 C977.9710455304852,205.0634788779904 977.6250321871679,205.1228664584703 977.5871251281459,205.13142492856662 C977.7495734851797,205.09474813427744 978.2918014240123,204.85068474849345 978.7041171716002,204.2988822916883 C978.9194764792643,204.01066677782507 978.9820322028262,203.7914088080616 978.9895073184456,203.7519029150178 C978.9798217122915,203.80309122303441 978.9510872192722,204.12414839384513 979.1155223003744,204.65785587023703 C980.9218475849924,209.91404771836739 1091.2121878313365,534.3099225574698 1091.2121878313365,534.3099225574698 C1092.0195815352854,536.4922821682594 1092.9762402373458,537.3391414175111 1093.1489954508966,537.4454355193575 C1093.0364463808864,537.4066547349429 1092.9238973108768,537.3678739505282 1092.8113482408667,537.3290931661136 C1092.4282000382,537.2497805934781 1092.1243039222936,537.323272961519 1092.0500031489191,537.3557484466345 C1092.091447965162,537.3376336888484 1092.3626625932548,537.1891647042036 1092.737750121556,536.7425486456383 C1100.8720468714955,527.3751011608911 1215.4304246563584,395.5049281429349 1261.1592748661637,342.5389200606013 C1265.9583239880249,336.98036187665787 1274.354823705777,336.3646581299222 1279.9133818897203,341.16370725178376 C1285.471940073664,345.9627563736453 1286.0876438203995,354.3592560913972 1281.288594698538,359.9178142753406 C1235.5635537178355,412.8794102708081 1121.1627948277996,544.5683335080817 1113.1021112557319,553.8454219901378 C1099.729868249417,569.7677281587756 1074.957339737019,567.13283322815 1066.0340640892173,542.8701542054836 C1066.0340640892173,542.8701542054836 955.7528701591826,218.50118133507743 953.7009025330841,212.48809105988283 C948.0365203924279,194.1031875627608 961.1746888977508,175.99004701396154 982.2160178397204,178.80078709325352 L982.5724645921831,178.8484019172052 L982.92581666902,178.9152133578147 C991.6278907780044,180.56059241633392 1152.8903344199866,211.05920553678942 1234.794094400394,226.6096482267775 C1242.0088073202078,227.97945078298642 1246.7470433596054,234.9385755734255 1245.3772408033965,242.15328849323936 C1244.0074382471876,249.36800141305315 1237.0483134567485,254.10623745245073 1229.8336005369347,252.73643489624186" fill="#ffffff"/>
		</g>
	</g>
</g></g></svg>