<svg xmlns="http://www.w3.org/2000/svg" viewBox="0 0 512 512" width="512" height="512"><defs></defs><g>
<g>
	<g>
		<g transform="matrix(0.925553371,-0.378617164,0.378617164,0.925553371,-902.178937725,341.350504285)">
			<path d="M1323.6218229788367,235.0523484597209 C1341.1048087586848,227.90056370312698 1361.1156528323438,236.29260666793328 1368.2674375889376,253.77559244778143 C1375.4192223455316,271.2585782276296 1367.0271793807253,291.26942230128844 1349.5441936008772,298.4212070578824 C1332.061207821029,305.57299181447627 1312.05036374737,297.18094884966996 1304.8985789907763,279.6979630698218 C1297.7467942341823,262.21497728997366 1306.1388371989885,242.20413321631477 1323.6218229788367,235.0523484597209 Z" fill="#ffffff"/>
		</g>
		<g transform="matrix(0.925553371,-0.378617164,0.378617164,0.925553371,-902.178937725,341.350504285)">
			<path d="M1200.6931365306414,260.62213868021905 C1118.8154876195508,245.0766534999605 983.900301103262,219.69654694463867 975.5147166027306,218.1110094098143 L976.9343142613301,218.33986193893662 C984.8804558676424,219.40132239850118 994.606728615112,209.7784399566724 991.8228321840198,200.74273827541407 L991.5679860595143,199.9589574861481 C993.5063362978627,205.62048090991163 1103.8012497023956,530.0298067334627 1103.8012497023956,530.0298067334627 L1103.580720510351,529.4066863074664 C1103.5993152913002,529.4535441600079 1103.6179100722497,529.5004020125493 1103.6365048531989,529.5472598650907 C1101.2551344367257,524.3508418525475 1088.605918392695,520.986972280159 1082.5555695544685,528.1911119733887 C1090.8196402961225,518.6714558924538 1186.5199243817387,407.131268989397 1232.1527177971657,354.27651988086336 C1241.7508160408888,343.1594035129764 1258.5438154763924,341.92799601950514 1269.6609318442793,351.52609426322823 C1280.7780482121666,361.1241925069514 1282.0094557056377,377.917191942455 1272.4113574619146,389.034308310342 C1226.5809027921005,442.1180010190186 1131.216553092533,553.2704226387283 1123.2842918228198,562.3968586623874 C1103.3985530771097,586.0747727228201 1066.0206061185313,581.350775131722 1053.6655314102027,547.773390455487 L1053.551394534309,547.4632006850409 L1053.4450022181577,547.1502700294906 C1053.4450022181577,547.1502700294906 943.1683814462459,222.79474814333884 941.2484387739445,217.1869894439717 L941.1149423583191,216.7970737986468 L940.9935926494389,216.40320865470574 C932.4652627834342,188.7227807307595 953.3806885288983,161.5340383023317 983.9765856991836,165.62109547802578 L984.6894792041102,165.71632512592925 L985.3961833577833,165.8499480071481 C994.067454431134,167.48950285995096 1128.6101765857147,192.79910077789475 1210.6141242575595,208.36856534129043 C1225.043550097187,211.10817045370817 1234.5200221759828,225.0264200345864 1231.7804170635645,239.455845874214 C1229.0408119511471,253.88527171384163 1215.122562370269,263.3617437926369 1200.6931365306414,260.62213868021905" fill="#ffffff"/>
		</g>
	</g>
</g></g></svg>